<svg width="73" height="67" viewBox="0 0 73 67" fill="none" xmlns="http://www.w3.org/2000/svg">
<path d="M38.5442 39.0833C38.5442 37.9788 37.6487 37.0833 36.5442 37.0833C35.4396 37.0833 34.5442 37.9788 34.5442 39.0833H38.5442ZM34.5442 47.4583C34.5442 48.5629 35.4396 49.4583 36.5442 49.4583C37.6487 49.4583 38.5442 48.5629 38.5442 47.4583H34.5442ZM33.5611 10.375H39.5272V6.375H33.5611V10.375ZM46.4765 16.75V25.125H50.4765V16.75H46.4765ZM48.4765 23.125H24.6118V27.125H48.4765V23.125ZM26.6118 25.125V16.75H22.6118V25.125H26.6118ZM55.4257 33.5V50.25H59.4257V33.5H55.4257ZM48.4765 56.625H24.6118V60.625H48.4765V56.625ZM17.6626 50.25V33.5H13.6626V50.25H17.6626ZM24.6118 56.625C20.6469 56.625 17.6626 53.6479 17.6626 50.25H13.6626C13.6626 56.1028 18.6917 60.625 24.6118 60.625V56.625ZM55.4257 50.25C55.4257 53.6479 52.4415 56.625 48.4765 56.625V60.625C54.3966 60.625 59.4257 56.1028 59.4257 50.25H55.4257ZM48.4765 27.125C52.4415 27.125 55.4257 30.1021 55.4257 33.5H59.4257C59.4257 27.6472 54.3966 23.125 48.4765 23.125V27.125ZM24.6118 23.125C18.6917 23.125 13.6626 27.6472 13.6626 33.5H17.6626C17.6626 30.1021 20.6469 27.125 24.6118 27.125V23.125ZM37.5272 39.0833C37.5272 39.3977 37.2141 39.875 36.5442 39.875V43.875C39.1692 43.875 41.5272 41.8526 41.5272 39.0833H37.5272ZM36.5442 39.875C35.8742 39.875 35.5611 39.3977 35.5611 39.0833H31.5611C31.5611 41.8526 33.9191 43.875 36.5442 43.875V39.875ZM35.5611 39.0833C35.5611 38.769 35.8742 38.2917 36.5442 38.2917V34.2917C33.9191 34.2917 31.5611 36.3141 31.5611 39.0833H35.5611ZM36.5442 38.2917C37.2141 38.2917 37.5272 38.769 37.5272 39.0833H41.5272C41.5272 36.3141 39.1692 34.2917 36.5442 34.2917V38.2917ZM34.5442 39.0833V47.4583H38.5442V39.0833H34.5442ZM39.5272 10.375C43.4922 10.375 46.4765 13.3521 46.4765 16.75H50.4765C50.4765 10.8972 45.4473 6.375 39.5272 6.375V10.375ZM33.5611 6.375C27.641 6.375 22.6118 10.8972 22.6118 16.75H26.6118C26.6118 13.3521 29.5961 10.375 33.5611 10.375V6.375Z" fill="white"/>
</svg>
