<svg width="75" height="69" viewBox="0 0 75 69" fill="none" xmlns="http://www.w3.org/2000/svg">
<path d="M6.83387 28.9226C8.40066 30.3889 10.8891 30.5326 12.5788 29.2101C26.9256 18.1701 47.7546 18.1701 62.1322 29.1814C63.8526 30.5039 66.3717 30.3889 67.9385 28.9226C69.7511 27.2264 69.6282 24.4089 67.6313 22.8851C50.0894 9.45887 24.7137 9.45887 7.14108 22.8851C5.1442 24.3801 4.99059 27.1976 6.83387 28.9226ZM30.6736 51.2326L35.1896 55.4589C36.3878 56.5801 38.3232 56.5801 39.5213 55.4589L44.0373 51.2326C45.4813 49.8814 45.174 47.5526 43.3308 46.6614C41.4725 45.7684 39.4137 45.3027 37.3247 45.3027C35.2358 45.3027 33.177 45.7684 31.3187 46.6614C29.5676 47.5526 29.2297 49.8814 30.6736 51.2326ZM19.2145 40.5089C20.7199 41.9176 23.0854 42.0614 24.8365 40.8826C28.5017 38.4558 32.881 37.1526 37.3708 37.1526C41.8606 37.1526 46.2399 38.4558 49.9051 40.8826C51.6562 42.0326 54.0218 41.9176 55.5271 40.5089L55.5578 40.4801C57.4011 38.7551 57.2782 35.8226 55.1585 34.4139C44.5903 27.2551 30.182 27.2551 19.5832 34.4139C17.4634 35.8514 17.3406 38.7551 19.2145 40.5089Z" fill="white"/>
</svg>
