<svg width="74" height="69" viewBox="0 0 74 69" fill="none" xmlns="http://www.w3.org/2000/svg">
<path d="M23.1816 20.125C26.575 20.125 29.3259 17.5506 29.3259 14.375C29.3259 11.1994 26.575 8.625 23.1816 8.625C19.7882 8.625 17.0374 11.1994 17.0374 14.375C17.0374 17.5506 19.7882 20.125 23.1816 20.125Z" stroke="white" stroke-width="2.66667" stroke-linecap="round" stroke-linejoin="round"/>
<path d="M50.8308 20.125C54.2242 20.125 56.975 17.5506 56.975 14.375C56.975 11.1994 54.2242 8.625 50.8308 8.625C47.4374 8.625 44.6865 11.1994 44.6865 14.375C44.6865 17.5506 47.4374 20.125 50.8308 20.125Z" stroke="white" stroke-width="2.66667" stroke-linecap="round" stroke-linejoin="round"/>
<path d="M15.5012 28.75H30.8619L27.7897 60.375H18.5733L15.5012 28.75ZM43.1504 28.75H58.511L61.5831 44.5625H56.975L55.4389 60.375H46.2225L44.6864 44.5625H40.0782L43.1504 28.75Z" stroke="white" stroke-width="2.66667" stroke-linecap="round" stroke-linejoin="round"/>
</svg>
